<mxfile host="65bd71144e">
    <diagram id="iC_cLufYd_RflkLU6bFJ" name="Page-1">
        <mxGraphModel dx="1146" dy="704" grid="1" gridSize="10" guides="1" tooltips="1" connect="1" arrows="1" fold="1" page="1" pageScale="1" pageWidth="827" pageHeight="1169" math="0" shadow="0">
            <root>
                <mxCell id="0"/>
                <mxCell id="1" parent="0"/>
                <mxCell id="4" value="&lt;span style=&quot;caret-color: rgb(223, 48, 121); font-family: &amp;quot;Söhne Mono&amp;quot;, Monaco, &amp;quot;Andale Mono&amp;quot;, &amp;quot;Ubuntu Mono&amp;quot;, monospace; font-size: 14px; text-align: left;&quot;&gt;Walking &amp;amp; Midnight?&lt;/span&gt;" style="rhombus;whiteSpace=wrap;html=1;fillColor=none;strokeColor=#F0F0F0;" vertex="1" parent="1">
                    <mxGeometry x="260" y="190" width="250" height="120" as="geometry"/>
                </mxCell>
                <mxCell id="2" value="&lt;font color=&quot;#000000&quot;&gt;Start&lt;/font&gt;" style="ellipse;whiteSpace=wrap;html=1;strokeColor=#F0F0F0;fillColor=none;" vertex="1" parent="1">
                    <mxGeometry x="315" y="30" width="140" height="100" as="geometry"/>
                </mxCell>
                <mxCell id="5" value="no" style="edgeStyle=orthogonalEdgeStyle;html=1;align=left;verticalAlign=bottom;endArrow=open;endSize=8;strokeColor=#F0F0F0;" edge="1" source="4" parent="1">
                    <mxGeometry x="-0.1304" y="10" relative="1" as="geometry">
                        <mxPoint x="740" y="250" as="targetPoint"/>
                        <mxPoint as="offset"/>
                    </mxGeometry>
                </mxCell>
                <mxCell id="6" value="yes" style="edgeStyle=orthogonalEdgeStyle;html=1;align=left;verticalAlign=top;endArrow=open;endSize=8;strokeColor=#F0F0F0;fillColor=none;" edge="1" parent="1">
                    <mxGeometry x="-0.5" y="16" relative="1" as="geometry">
                        <mxPoint x="384.5" y="390" as="targetPoint"/>
                        <mxPoint x="384.5" y="310" as="sourcePoint"/>
                        <mxPoint as="offset"/>
                    </mxGeometry>
                </mxCell>
                <mxCell id="9" value="yes" style="edgeStyle=orthogonalEdgeStyle;html=1;align=left;verticalAlign=top;endArrow=open;endSize=8;strokeColor=#F0F0F0;exitX=0.5;exitY=1;exitDx=0;exitDy=0;entryX=0.5;entryY=0;entryDx=0;entryDy=0;" edge="1" parent="1" source="2" target="4">
                    <mxGeometry x="-0.5" y="16" relative="1" as="geometry">
                        <mxPoint x="350" y="240" as="targetPoint"/>
                        <mxPoint x="350" y="160" as="sourcePoint"/>
                        <mxPoint as="offset"/>
                    </mxGeometry>
                </mxCell>
                <mxCell id="10" value="&lt;span style=&quot;caret-color: rgb(223, 48, 121); font-family: &amp;quot;Söhne Mono&amp;quot;, Monaco, &amp;quot;Andale Mono&amp;quot;, &amp;quot;Ubuntu Mono&amp;quot;, monospace; font-size: 14px; text-align: left;&quot;&gt;It's Raining&lt;/span&gt;" style="rhombus;whiteSpace=wrap;html=1;fillColor=none;strokeColor=#F0F0F0;" vertex="1" parent="1">
                    <mxGeometry x="260" y="390" width="250" height="120" as="geometry"/>
                </mxCell>
                <mxCell id="11" value="yes" style="edgeStyle=orthogonalEdgeStyle;html=1;align=left;verticalAlign=top;endArrow=open;endSize=8;strokeColor=#F0F0F0;fillColor=none;exitX=0.5;exitY=1;exitDx=0;exitDy=0;" edge="1" parent="1" source="10">
                    <mxGeometry x="-0.25" y="20" relative="1" as="geometry">
                        <mxPoint x="385" y="600" as="targetPoint"/>
                        <mxPoint x="380" y="530" as="sourcePoint"/>
                        <mxPoint as="offset"/>
                    </mxGeometry>
                </mxCell>
                <mxCell id="12" value="no" style="edgeStyle=orthogonalEdgeStyle;html=1;align=left;verticalAlign=bottom;endArrow=open;endSize=8;strokeColor=#F0F0F0;exitX=1;exitY=0.5;exitDx=0;exitDy=0;" edge="1" parent="1" source="10">
                    <mxGeometry x="-1" relative="1" as="geometry">
                        <mxPoint x="570" y="450" as="targetPoint"/>
                        <mxPoint x="560" y="450" as="sourcePoint"/>
                        <Array as="points">
                            <mxPoint x="520" y="450"/>
                            <mxPoint x="520" y="450"/>
                        </Array>
                    </mxGeometry>
                </mxCell>
                <mxCell id="13" value="&lt;font color=&quot;#f0f0f0&quot; style=&quot;font-size: 12px;&quot;&gt;&lt;span style=&quot;caret-color: rgb(209, 213, 219); font-family: Söhne, ui-sans-serif, system-ui, -apple-system, &amp;quot;Segoe UI&amp;quot;, Roboto, Ubuntu, Cantarell, &amp;quot;Noto Sans&amp;quot;, sans-serif, &amp;quot;Helvetica Neue&amp;quot;, Arial, &amp;quot;Apple Color Emoji&amp;quot;, &amp;quot;Segoe UI Emoji&amp;quot;, &amp;quot;Segoe UI Symbol&amp;quot;, &amp;quot;Noto Color Emoji&amp;quot;; font-style: normal; font-variant-caps: normal; font-weight: 400; letter-spacing: normal; text-align: left; text-indent: 0px; text-transform: none; word-spacing: 0px; -webkit-text-stroke-width: 0px; text-decoration: none; float: none; display: inline !important;&quot;&gt;Take umbrella &amp;amp;&amp;nbsp;&lt;/span&gt;&lt;span style=&quot;font-family: Söhne, ui-sans-serif, system-ui, -apple-system, &amp;quot;Segoe UI&amp;quot;, Roboto, Ubuntu, Cantarell, &amp;quot;Noto Sans&amp;quot;, sans-serif, &amp;quot;Helvetica Neue&amp;quot;, Arial, &amp;quot;Apple Color Emoji&amp;quot;, &amp;quot;Segoe UI Emoji&amp;quot;, &amp;quot;Segoe UI Symbol&amp;quot;, &amp;quot;Noto Color Emoji&amp;quot;; text-align: left; caret-color: rgb(209, 213, 219);&quot;&gt;searchlight&lt;/span&gt;&lt;/font&gt;" style="html=1;labelBackgroundColor=none;strokeColor=#F0F0F0;fontColor=none;fillColor=none;" vertex="1" parent="1">
                    <mxGeometry x="280" y="600" width="220" height="80" as="geometry"/>
                </mxCell>
                <mxCell id="14" value="&lt;span style=&quot;caret-color: rgb(209, 213, 219); font-family: Söhne, ui-sans-serif, system-ui, -apple-system, &amp;quot;Segoe UI&amp;quot;, Roboto, Ubuntu, Cantarell, &amp;quot;Noto Sans&amp;quot;, sans-serif, &amp;quot;Helvetica Neue&amp;quot;, Arial, &amp;quot;Apple Color Emoji&amp;quot;, &amp;quot;Segoe UI Emoji&amp;quot;, &amp;quot;Segoe UI Symbol&amp;quot;, &amp;quot;Noto Color Emoji&amp;quot;; text-align: left;&quot;&gt;&lt;font color=&quot;#f0f0f0&quot; style=&quot;font-size: 12px;&quot;&gt;searchlight&lt;/font&gt;&lt;/span&gt;" style="html=1;labelBackgroundColor=none;strokeColor=#F0F0F0;fontColor=none;fillColor=none;" vertex="1" parent="1">
                    <mxGeometry x="570" y="410" width="110" height="80" as="geometry"/>
                </mxCell>
                <mxCell id="17" value="&lt;span style=&quot;caret-color: rgb(209, 213, 219); font-family: Söhne, ui-sans-serif, system-ui, -apple-system, &amp;quot;Segoe UI&amp;quot;, Roboto, Ubuntu, Cantarell, &amp;quot;Noto Sans&amp;quot;, sans-serif, &amp;quot;Helvetica Neue&amp;quot;, Arial, &amp;quot;Apple Color Emoji&amp;quot;, &amp;quot;Segoe UI Emoji&amp;quot;, &amp;quot;Segoe UI Symbol&amp;quot;, &amp;quot;Noto Color Emoji&amp;quot;; font-size: 16px; text-align: left;&quot;&gt;Running &amp;amp; Raining&lt;/span&gt;" style="rhombus;whiteSpace=wrap;html=1;fillColor=none;strokeColor=#F0F0F0;" vertex="1" parent="1">
                    <mxGeometry x="740" y="190" width="250" height="120" as="geometry"/>
                </mxCell>
                <mxCell id="19" value="yes" style="edgeStyle=orthogonalEdgeStyle;html=1;align=left;verticalAlign=top;endArrow=open;endSize=8;strokeColor=#F0F0F0;fillColor=none;exitX=0.5;exitY=1;exitDx=0;exitDy=0;" edge="1" parent="1" source="17">
                    <mxGeometry x="-0.25" y="20" relative="1" as="geometry">
                        <mxPoint x="865" y="400" as="targetPoint"/>
                        <mxPoint x="880" y="340" as="sourcePoint"/>
                        <mxPoint as="offset"/>
                    </mxGeometry>
                </mxCell>
                <mxCell id="20" value="&lt;span style=&quot;caret-color: rgb(209, 213, 219); font-family: Söhne, ui-sans-serif, system-ui, -apple-system, &amp;quot;Segoe UI&amp;quot;, Roboto, Ubuntu, Cantarell, &amp;quot;Noto Sans&amp;quot;, sans-serif, &amp;quot;Helvetica Neue&amp;quot;, Arial, &amp;quot;Apple Color Emoji&amp;quot;, &amp;quot;Segoe UI Emoji&amp;quot;, &amp;quot;Segoe UI Symbol&amp;quot;, &amp;quot;Noto Color Emoji&amp;quot;; font-size: 16px; text-align: left;&quot;&gt;Is Raining&lt;/span&gt;" style="rhombus;whiteSpace=wrap;html=1;fillColor=none;strokeColor=#F0F0F0;" vertex="1" parent="1">
                    <mxGeometry x="740" y="400" width="250" height="120" as="geometry"/>
                </mxCell>
                <mxCell id="22" value="yes" style="edgeStyle=orthogonalEdgeStyle;html=1;align=left;verticalAlign=top;endArrow=open;endSize=8;strokeColor=#F0F0F0;fillColor=none;exitX=0.5;exitY=1;exitDx=0;exitDy=0;" edge="1" parent="1" source="20">
                    <mxGeometry x="-0.25" y="20" relative="1" as="geometry">
                        <mxPoint x="865" y="610" as="targetPoint"/>
                        <mxPoint x="870" y="550" as="sourcePoint"/>
                        <mxPoint as="offset"/>
                    </mxGeometry>
                </mxCell>
                <mxCell id="23" value="no" style="edgeStyle=orthogonalEdgeStyle;html=1;align=left;verticalAlign=bottom;endArrow=open;endSize=8;strokeColor=#F0F0F0;" edge="1" parent="1">
                    <mxGeometry x="-0.1304" y="10" relative="1" as="geometry">
                        <mxPoint x="1100" y="460" as="targetPoint"/>
                        <mxPoint x="990" y="460" as="sourcePoint"/>
                        <Array as="points">
                            <mxPoint x="1100" y="460"/>
                        </Array>
                        <mxPoint as="offset"/>
                    </mxGeometry>
                </mxCell>
                <mxCell id="24" value="&lt;span style=&quot;caret-color: rgb(209, 213, 219); font-family: Söhne, ui-sans-serif, system-ui, -apple-system, &amp;quot;Segoe UI&amp;quot;, Roboto, Ubuntu, Cantarell, &amp;quot;Noto Sans&amp;quot;, sans-serif, &amp;quot;Helvetica Neue&amp;quot;, Arial, &amp;quot;Apple Color Emoji&amp;quot;, &amp;quot;Segoe UI Emoji&amp;quot;, &amp;quot;Segoe UI Symbol&amp;quot;, &amp;quot;Noto Color Emoji&amp;quot;; font-style: normal; font-variant-caps: normal; font-weight: 400; letter-spacing: normal; text-align: left; text-indent: 0px; text-transform: none; word-spacing: 0px; -webkit-text-stroke-width: 0px; text-decoration: none; float: none; display: inline !important;&quot;&gt;&lt;font color=&quot;#f0f0f0&quot; style=&quot;font-size: 12px;&quot;&gt;Take umbrella&lt;/font&gt;&lt;/span&gt;" style="html=1;labelBackgroundColor=none;strokeColor=#F0F0F0;fontColor=none;fillColor=none;" vertex="1" parent="1">
                    <mxGeometry x="755" y="610" width="220" height="80" as="geometry"/>
                </mxCell>
                <mxCell id="25" value="&lt;span style=&quot;caret-color: rgb(209, 213, 219); font-family: Söhne, ui-sans-serif, system-ui, -apple-system, &amp;quot;Segoe UI&amp;quot;, Roboto, Ubuntu, Cantarell, &amp;quot;Noto Sans&amp;quot;, sans-serif, &amp;quot;Helvetica Neue&amp;quot;, Arial, &amp;quot;Apple Color Emoji&amp;quot;, &amp;quot;Segoe UI Emoji&amp;quot;, &amp;quot;Segoe UI Symbol&amp;quot;, &amp;quot;Noto Color Emoji&amp;quot;; font-style: normal; font-variant-caps: normal; font-weight: 400; letter-spacing: normal; text-align: left; text-indent: 0px; text-transform: none; word-spacing: 0px; -webkit-text-stroke-width: 0px; text-decoration: none; float: none; display: inline !important;&quot;&gt;&lt;font color=&quot;#ffffff&quot; style=&quot;font-size: 12px;&quot;&gt;continue what you are doing&lt;/font&gt;&lt;/span&gt;" style="html=1;labelBackgroundColor=none;strokeColor=#F0F0F0;fontColor=none;fillColor=none;" vertex="1" parent="1">
                    <mxGeometry x="1100" y="420" width="180" height="80" as="geometry"/>
                </mxCell>
            </root>
        </mxGraphModel>
    </diagram>
</mxfile>